<svg xmlns="http://www.w3.org/2000/svg" width="51.182" height="43.584" viewBox="0 0 51.182 43.584">
  <g id="chatbot" transform="translate(0.5 -37.5)">
    <g id="Group_17128" data-name="Group 17128" transform="translate(5.498 37.5)">
      <path id="Path_11989" data-name="Path 11989" d="M79.093,37.5v9.9q-3.7-.025-7.4.05a9.118,9.118,0,0,0-7.547,7.148Q63.316,61.8,69.9,64.741a13.5,13.5,0,0,0,1.4.4q3.894.212,7.8.15v4.5q-5.448.025-10.9-.05a9.746,9.746,0,0,1-7.1-4.448,10.546,10.546,0,0,1-1.549-4.4q-.1-2.9,0-5.8a21.114,21.114,0,0,1,1.15-4.9,22.69,22.69,0,0,1,2.9-5.3A19.926,19.926,0,0,1,79.093,37.5Z" transform="translate(-59.5 -37.5)" fill="#eff4f9" fill-rule="evenodd" opacity="0.997"/>
    </g>
    <g id="Group_17129" data-name="Group 17129" transform="translate(25.091 37.5)">
      <path id="Path_11990" data-name="Path 11990" d="M255.5,37.5a19.926,19.926,0,0,1,15.495,7.4,22.688,22.688,0,0,1,2.9,5.3,19.613,19.613,0,0,1,1.15,4.9q.1,2.949,0,5.9a9.56,9.56,0,0,1-1.549,4.3,9.745,9.745,0,0,1-7.1,4.448q-5.448.075-10.9.05v-4.5q3.5.025,7-.05,6.854-1.106,8.047-7.947a8.953,8.953,0,0,0-4.448-8.747,9.469,9.469,0,0,0-3.4-1.1q-3.6-.075-7.2-.05Z" transform="translate(-255.5 -37.5)" fill="#d6e2ef" fill-rule="evenodd"/>
    </g>
    <g id="Group_17130" data-name="Group 17130" transform="translate(6.48 39.993)">
      <path id="Path_11991" data-name="Path 11991" d="M72.441,67.347a22.69,22.69,0,0,0-2.9,5.3h-.2q-.072-4.708.15-9.4a1.6,1.6,0,0,1,1.849-.75,1.4,1.4,0,0,1,1.05,1.05Q72.466,65.447,72.441,67.347Z" transform="translate(-69.325 -62.443)" fill="#f40000" fill-rule="evenodd" opacity="0.965"/>
    </g>
    <g id="Group_17131" data-name="Group 17131" transform="translate(40.579 39.99)">
      <path id="Path_11992" data-name="Path 11992" d="M413.543,72.616h-.2a22.689,22.689,0,0,0-2.9-5.3q-.025-1.9.05-3.8a1.514,1.514,0,0,1,1.949-1.05,1.357,1.357,0,0,1,.95.75Q413.614,67.908,413.543,72.616Z" transform="translate(-410.437 -62.411)" fill="#f40000" fill-rule="evenodd" opacity="0.964"/>
    </g>
    <g id="Group_17132" data-name="Group 17132" transform="translate(10.053 47.39)">
      <path id="Path_11993" data-name="Path 11993" d="M120.1,136.444v3q-3.649-.025-7.3.05-5.364,1.667-4.648,7.247a6.2,6.2,0,0,0,4.948,4.548q3.5.075,7,.05v3q-3.9.062-7.8-.15a13.5,13.5,0,0,1-1.4-.4q-6.581-2.937-5.748-10.146a9.118,9.118,0,0,1,7.547-7.148Q116.4,136.419,120.1,136.444Z" transform="translate(-105.065 -136.437)" fill="#d6e2ef" fill-rule="evenodd"/>
    </g>
    <g id="Group_17133" data-name="Group 17133" transform="translate(25.091 47.39)">
      <path id="Path_11994" data-name="Path 11994" d="M255.5,136.444q3.6-.025,7.2.05a9.469,9.469,0,0,1,3.4,1.1,8.953,8.953,0,0,1,4.448,8.747q-1.193,6.841-8.047,7.947-3.5.075-7,.05v-3q3.449.025,6.9-.05a6.11,6.11,0,0,0,4.948-4.149q1.1-5.074-3.549-7.347-.543-.173-1.1-.3-3.6-.075-7.2-.05Z" transform="translate(-255.5 -136.437)" fill="#9fb5da" fill-rule="evenodd"/>
    </g>
    <g id="Group_17134" data-name="Group 17134" transform="translate(-0.5 50.189)">
      <path id="Path_11995" data-name="Path 11995" d="M6.5,164.444h.2a21.114,21.114,0,0,0-1.15,4.9q-.1,2.9,0,5.8a10.546,10.546,0,0,0,1.549,4.4q-2.05.025-4.1-.05A4.723,4.723,0,0,1-.5,176.04v-8.1A4.723,4.723,0,0,1,3,164.494Q4.747,164.419,6.5,164.444Z" transform="translate(0.5 -164.437)" fill="#f40000" fill-rule="evenodd" opacity="0.993"/>
    </g>
    <g id="Group_17135" data-name="Group 17135" transform="translate(43.085 50.189)">
      <path id="Path_11996" data-name="Path 11996" d="M435.9,164.444h.2q1.75-.025,3.5.05a4.723,4.723,0,0,1,3.5,3.449v7.6a4.84,4.84,0,0,1-2,3.249,7.125,7.125,0,0,0-1,.55,4.249,4.249,0,0,0-.5.15q-2.049.075-4.1.05a9.561,9.561,0,0,0,1.549-4.3q.1-2.949,0-5.9A19.61,19.61,0,0,0,435.9,164.444Z" transform="translate(-435.5 -164.437)" fill="#f40000" fill-rule="evenodd" opacity="0.998"/>
    </g>
    <g id="Group_17136" data-name="Group 17136" transform="translate(13.061 50.389)">
      <path id="Path_11997" data-name="Path 11997" d="M147.187,166.444v11.9q-3.5.025-7-.05a6.2,6.2,0,0,1-4.948-4.548q-.716-5.58,4.648-7.247Q143.538,166.419,147.187,166.444Z" transform="translate(-135.157 -166.437)" fill="#f40000" fill-rule="evenodd"/>
    </g>
    <g id="Group_17137" data-name="Group 17137" transform="translate(25.091 50.389)">
      <path id="Path_11998" data-name="Path 11998" d="M255.5,166.444q3.6-.025,7.2.05.556.127,1.1.3,4.648,2.273,3.549,7.347a6.11,6.11,0,0,1-4.948,4.149q-3.448.075-6.9.05Z" transform="translate(-255.5 -166.437)" fill="#f40000" fill-rule="evenodd"/>
    </g>
    <g id="Group_17138" data-name="Group 17138" transform="translate(17.794 54.26)">
      <path id="Path_11999" data-name="Path 11999" d="M183.5,205.195a1.607,1.607,0,0,1,1.949,1.1,6.082,6.082,0,0,1-.1,2.1q-1.191,1.656-2.6.2a2.3,2.3,0,0,1-.2-.5,9.042,9.042,0,0,1,0-1.9A1.986,1.986,0,0,1,183.5,205.195Z" transform="translate(-182.5 -205.161)" fill="#fff" fill-rule="evenodd"/>
    </g>
    <g id="Group_17139" data-name="Group 17139" transform="translate(29.39 54.26)">
      <path id="Path_12000" data-name="Path 12000" d="M299.5,205.191a1.668,1.668,0,0,1,1.949,1,6.638,6.638,0,0,1-.1,2.2,1.48,1.48,0,0,1-2.6.2,2.3,2.3,0,0,1-.2-.5,8.114,8.114,0,0,1,0-1.8A1.74,1.74,0,0,1,299.5,205.191Z" transform="translate(-298.5 -205.157)" fill="#fff" fill-rule="evenodd"/>
    </g>
    <g id="Group_17140" data-name="Group 17140" transform="translate(36.287 61.292)">
      <path id="Path_12001" data-name="Path 12001" d="M381.895,275.5v9.8a9.476,9.476,0,0,1-5.8,7.147,11.666,11.666,0,0,1-2.3.6q-3.148.075-6.3.05a5.042,5.042,0,0,0,.1-3.1q2.949.025,5.9-.05a6.338,6.338,0,0,0,5.348-6.048q.075-2.3.05-4.6a7.133,7.133,0,0,1,1-.55A4.839,4.839,0,0,0,381.895,275.5Z" transform="translate(-367.5 -275.5)" fill="#f40000" fill-rule="evenodd" opacity="0.982"/>
    </g>
    <g id="Group_17141" data-name="Group 17141" transform="translate(25.846 73.485)">
      <path id="Path_12002" data-name="Path 12002" d="M273.591,399.778a5.042,5.042,0,0,1-.1,3.1,3.534,3.534,0,0,1-2.4,2.049,29.849,29.849,0,0,1-4.7.1q-4.151-.978-3.149-5.148a3.859,3.859,0,0,1,2.749-2.349,36.679,36.679,0,0,1,5.3.1A3.521,3.521,0,0,1,273.591,399.778Z" transform="translate(-263.05 -397.477)" fill="#f40000" fill-rule="evenodd" opacity="0.984"/>
    </g>
  </g>
</svg>
