<svg xmlns="http://www.w3.org/2000/svg" xmlns:xlink="http://www.w3.org/1999/xlink" width="51.182" height="43.584" zoomAndPan="magnify" viewBox="0 0 375 374.999991" height="500" preserveAspectRatio="xMidYMid meet" version="1.0"><defs><clipPath id="4b09278d68"><path d="M 66.429688 83.039062 L 308.902344 83.039062 L 308.902344 375 L 66.429688 375 Z M 66.429688 83.039062 " clip-rule="nonzero"/></clipPath></defs><rect x="-37.5" width="450" fill="#ffffff" y="-37.499999" height="449.999989" fill-opacity="1"/><rect x="-37.5" width="450" fill="#ffffff" y="-37.499999" height="449.999989" fill-opacity="1"/><path fill="#ff3131" d="M 0 187.5 C 0 83.945312 83.945312 0 187.5 0 C 291.054688 0 375 83.945312 375 187.5 C 375 291.054688 291.054688 375 187.5 375 C 83.945312 375 0 291.054688 0 187.5 " fill-opacity="1" fill-rule="nonzero"/><g clip-path="url(#4b09278d68)"><path fill="#ffffff" d="M 187.5 375 C 233.519531 375 275.667969 358.417969 308.296875 330.910156 C 306.328125 327.277344 304.960938 324.855469 304.796875 323.996094 C 304.222656 320.964844 301.277344 320.964844 301.277344 320.964844 C 267.199219 309.171875 248.710938 312.789062 245.953125 304.367188 C 242.878906 294.972656 236.792969 297.476562 236.792969 297.476562 C 236.792969 297.476562 229.699219 276.914062 229.699219 269.632812 C 229.699219 262.351562 240.730469 261.832031 245.972656 233 C 251.214844 204.164062 256.457031 227.753906 260.390625 196.957031 C 264.320312 166.152344 256.128906 177.625 253.835938 177.625 C 251.542969 177.625 258.289062 153.292969 254.355469 134.945312 L 257.496094 141.1875 L 255.691406 130.046875 L 260.03125 136.953125 C 260.03125 136.953125 260.277344 102.917969 218.339844 88.59375 C 184.121094 78.527344 166.332031 86.535156 157.46875 94.851562 C 161.421875 89.285156 166.011719 85.578125 166.011719 85.578125 C 159.046875 90.894531 155.097656 95.605469 152.851562 99.234375 C 155.652344 90.425781 162.195312 83.296875 162.195312 83.296875 C 151.726562 94.097656 149.769531 101.832031 149.453125 105.035156 C 149.34375 104.976562 149.230469 104.914062 149.097656 104.851562 C 146.816406 99.527344 147.429688 92.863281 147.429688 92.863281 C 146.800781 98.113281 147.105469 101.785156 147.691406 104.324219 C 145.09375 103.582031 140.308594 103.273438 131.792969 105.589844 C 131.792969 105.589844 139.703125 103.652344 145.492188 105.464844 C 136.542969 104.191406 124.640625 111.546875 121.238281 127.425781 C 117.308594 145.773438 123.316406 177.886719 121.023438 177.886719 C 118.726562 177.886719 110.535156 166.417969 114.464844 197.21875 C 118.402344 228.019531 123.640625 204.425781 128.882812 233.261719 C 134.125 262.09375 145.269531 262.515625 145.269531 269.796875 C 145.269531 277.078125 138.714844 297.738281 138.714844 297.738281 C 138.714844 297.738281 131.671875 296.011719 128.722656 304.367188 C 125.773438 312.722656 107.476562 309.171875 73.398438 320.964844 C 73.398438 320.964844 70.449219 320.964844 69.878906 323.996094 C 69.714844 324.835938 68.394531 327.195312 66.480469 330.722656 C 99.140625 358.34375 141.375 375 187.5 375 " fill-opacity="1" fill-rule="nonzero"/></g></svg>